<?xml version="1.0" encoding="UTF-8"?>
<svg xmlns="http://www.w3.org/2000/svg" width="1280" height="720" viewBox="0 0 1280 720" role="img" aria-labelledby="title desc">
  <title id="title">Week 30: Worship Beyond the Music</title>
  <desc id="desc">An audio visualizer graphic bar chart where the wave signals seamlessly morph into structural city skyline blocks and active street paths</desc>
  <defs>
    <linearGradient id="bg" x1="0" y1="0" x2="1" y2="1">
      <stop offset="0%" stop-color="#05060c"/>
      <stop offset="48%" stop-color="#090d1b"/>
      <stop offset="100%" stop-color="#030510"/>
    </linearGradient>
    <radialGradient id="warm" cx="18%" cy="20%" r="70%">
      <stop offset="0%" stop-color="#008B75" stop-opacity=".52"/>
      <stop offset="62%" stop-color="#008B75" stop-opacity=".08"/>
      <stop offset="100%" stop-color="#008B75" stop-opacity="0"/>
    </radialGradient>
    <radialGradient id="cool" cx="82%" cy="62%" r="68%">
      <stop offset="0%" stop-color="#D4AF37" stop-opacity=".5"/>
      <stop offset="58%" stop-color="#D4AF37" stop-opacity=".09"/>
      <stop offset="100%" stop-color="#D4AF37" stop-opacity="0"/>
    </radialGradient>
    <filter id="glow" x="-50%" y="-50%" width="200%" height="200%">
      <feGaussianBlur stdDeviation="9" result="blur"/>
      <feMerge>
        <feMergeNode in="blur"/>
        <feMergeNode in="SourceGraphic"/>
      </feMerge>
    </filter>
    <filter id="softShadow" x="-40%" y="-40%" width="180%" height="180%">
      <feDropShadow dx="0" dy="22" stdDeviation="24" flood-color="#000000" flood-opacity=".55"/>
    </filter>
    <pattern id="grid" width="54" height="54" patternUnits="userSpaceOnUse">
      <path d="M54 0H0V54" fill="none" stroke="#ffffff" stroke-opacity=".055" stroke-width="1"/>
    </pattern>
    <style>
      .line{fill:none;stroke:#f7f4ed;stroke-width:18;stroke-linecap:round;stroke-linejoin:round}
      .thin{fill:none;stroke:#f7f4ed;stroke-width:10;stroke-linecap:round;stroke-linejoin:round}
      .gold{stroke:#008B75;fill:none}
      .blue{stroke:#D4AF37;fill:none}
      .fillGold{fill:#008B75}
      .fillBlue{fill:#D4AF37}
      .soft{opacity:.24}
      .label{font:800 24px Inter,system-ui,sans-serif;letter-spacing:8px;fill:#61a0ff}
      .title{font:900 42px Inter,system-ui,sans-serif;letter-spacing:0;fill:#fff7e7}
      .micro{font:800 18px Inter,system-ui,sans-serif;letter-spacing:5px;fill:#aeb6c9}
    </style>
  </defs>
  <rect width="1280" height="720" fill="url(#bg)"/>
  <rect width="1280" height="720" fill="url(#warm)"/>
  <rect width="1280" height="720" fill="url(#cool)"/>
  <rect width="1280" height="720" fill="url(#grid)"/>
  <path d="M-80 622C210 548 370 664 642 584c245-72 406-264 718-196" fill="none" stroke="#008B75" stroke-opacity=".16" stroke-width="72"/>
  <path d="M-88 650C245 590 428 676 690 608c230-60 380-224 666-170" fill="none" stroke="#D4AF37" stroke-opacity=".13" stroke-width="44"/>
  <g filter="url(#softShadow)"><g fill="#2f76ff" opacity=".52"><rect x="640" y="436" width="30" height="64" rx="4"/><rect x="688" y="374" width="30" height="126" rx="4"/><rect x="736" y="408" width="30" height="92" rx="4"/><rect x="784" y="326" width="30" height="174" rx="4"/><rect x="832" y="388" width="30" height="112" rx="4"/><rect x="880" y="290" width="30" height="210" rx="4"/><rect x="928" y="354" width="30" height="146" rx="4"/><rect x="976" y="414" width="30" height="86" rx="4"/><rect x="1024" y="310" width="30" height="190" rx="4"/><rect x="1072" y="376" width="30" height="124" rx="4"/></g><path d="M628 424c60-120 120-120 180 0s120 120 180 0 120-120 180 0" class="thin gold" filter="url(#glow)"/><path d="M638 500h500" class="thin"/></g>
</svg>