<?xml version="1.0" encoding="UTF-8"?>
<svg xmlns="http://www.w3.org/2000/svg" width="1280" height="720" viewBox="0 0 1280 720" role="img" aria-labelledby="title desc">
  <title id="title">Week 1: The Algorithm vs. The Creator</title>
  <desc id="desc">A glowing, neon-lit smartphone screen displaying a bright neon cross overlaying a clean, real silhouette background, symbolizing identity found in Christ rather than app notifications. Minimalist, modern style</desc>
  <defs>
    <linearGradient id="bg" x1="0" y1="0" x2="1" y2="1">
      <stop offset="0%" stop-color="#05060c"/>
      <stop offset="48%" stop-color="#090d1b"/>
      <stop offset="100%" stop-color="#030510"/>
    </linearGradient>
    <radialGradient id="warm" cx="18%" cy="20%" r="70%">
      <stop offset="0%" stop-color="#0047FF" stop-opacity=".52"/>
      <stop offset="62%" stop-color="#0047FF" stop-opacity=".08"/>
      <stop offset="100%" stop-color="#0047FF" stop-opacity="0"/>
    </radialGradient>
    <radialGradient id="cool" cx="82%" cy="62%" r="68%">
      <stop offset="0%" stop-color="#FF00D6" stop-opacity=".5"/>
      <stop offset="58%" stop-color="#FF00D6" stop-opacity=".09"/>
      <stop offset="100%" stop-color="#FF00D6" stop-opacity="0"/>
    </radialGradient>
    <filter id="glow" x="-50%" y="-50%" width="200%" height="200%">
      <feGaussianBlur stdDeviation="9" result="blur"/>
      <feMerge>
        <feMergeNode in="blur"/>
        <feMergeNode in="SourceGraphic"/>
      </feMerge>
    </filter>
    <filter id="softShadow" x="-40%" y="-40%" width="180%" height="180%">
      <feDropShadow dx="0" dy="22" stdDeviation="24" flood-color="#000000" flood-opacity=".55"/>
    </filter>
    <pattern id="grid" width="54" height="54" patternUnits="userSpaceOnUse">
      <path d="M54 0H0V54" fill="none" stroke="#ffffff" stroke-opacity=".055" stroke-width="1"/>
    </pattern>
    <style>
      .line{fill:none;stroke:#f7f4ed;stroke-width:18;stroke-linecap:round;stroke-linejoin:round}
      .thin{fill:none;stroke:#f7f4ed;stroke-width:10;stroke-linecap:round;stroke-linejoin:round}
      .gold{stroke:#0047FF;fill:none}
      .blue{stroke:#FF00D6;fill:none}
      .fillGold{fill:#0047FF}
      .fillBlue{fill:#FF00D6}
      .soft{opacity:.24}
      .label{font:800 24px Inter,system-ui,sans-serif;letter-spacing:8px;fill:#61a0ff}
      .title{font:900 42px Inter,system-ui,sans-serif;letter-spacing:0;fill:#fff7e7}
      .micro{font:800 18px Inter,system-ui,sans-serif;letter-spacing:5px;fill:#aeb6c9}
    </style>
  </defs>
  <rect width="1280" height="720" fill="url(#bg)"/>
  <rect width="1280" height="720" fill="url(#warm)"/>
  <rect width="1280" height="720" fill="url(#cool)"/>
  <rect width="1280" height="720" fill="url(#grid)"/>
  <path d="M-80 622C210 548 370 664 642 584c245-72 406-264 718-196" fill="none" stroke="#0047FF" stroke-opacity=".16" stroke-width="72"/>
  <path d="M-88 650C245 590 428 676 690 608c230-60 380-224 666-170" fill="none" stroke="#FF00D6" stroke-opacity=".13" stroke-width="44"/>
  <g filter="url(#softShadow)"><circle cx="610" cy="88" r="1.3" fill="#ffffff" opacity="0.08"/><circle cx="707" cy="141" r="2.3" fill="#ffffff" opacity="0.12"/><circle cx="804" cy="194" r="3.3" fill="#ffffff" opacity="0.16"/><circle cx="901" cy="247" r="1.3" fill="#ffffff" opacity="0.2"/><circle cx="998" cy="300" r="2.3" fill="#ffffff" opacity="0.24"/><circle cx="1095" cy="353" r="3.3" fill="#ffffff" opacity="0.08"/><circle cx="632" cy="406" r="1.3" fill="#ffffff" opacity="0.12"/><circle cx="729" cy="459" r="2.3" fill="#ffffff" opacity="0.16"/><circle cx="826" cy="132" r="3.3" fill="#ffffff" opacity="0.2"/><circle cx="923" cy="185" r="1.3" fill="#ffffff" opacity="0.24"/><circle cx="1020" cy="238" r="2.3" fill="#ffffff" opacity="0.08"/><circle cx="1117" cy="291" r="3.3" fill="#ffffff" opacity="0.12"/><circle cx="654" cy="344" r="1.3" fill="#ffffff" opacity="0.16"/><circle cx="751" cy="397" r="2.3" fill="#ffffff" opacity="0.2"/><circle cx="848" cy="450" r="3.3" fill="#ffffff" opacity="0.24"/><circle cx="945" cy="123" r="1.3" fill="#ffffff" opacity="0.08"/><circle cx="1042" cy="176" r="2.3" fill="#ffffff" opacity="0.12"/><circle cx="1139" cy="229" r="3.3" fill="#ffffff" opacity="0.16"/><circle cx="676" cy="282" r="1.3" fill="#ffffff" opacity="0.2"/><circle cx="773" cy="335" r="2.3" fill="#ffffff" opacity="0.24"/><circle cx="870" cy="388" r="3.3" fill="#ffffff" opacity="0.08"/><circle cx="967" cy="441" r="1.3" fill="#ffffff" opacity="0.12"/><circle cx="1064" cy="114" r="2.3" fill="#ffffff" opacity="0.16"/><circle cx="1161" cy="167" r="3.3" fill="#ffffff" opacity="0.2"/><circle cx="698" cy="220" r="1.3" fill="#ffffff" opacity="0.24"/><circle cx="795" cy="273" r="2.3" fill="#ffffff" opacity="0.08"/><circle cx="892" cy="326" r="3.3" fill="#ffffff" opacity="0.12"/><circle cx="989" cy="379" r="1.3" fill="#ffffff" opacity="0.16"/><circle cx="1086" cy="432" r="2.3" fill="#ffffff" opacity="0.2"/><circle cx="623" cy="105" r="3.3" fill="#ffffff" opacity="0.24"/><circle cx="720" cy="158" r="1.3" fill="#ffffff" opacity="0.08"/><circle cx="817" cy="211" r="2.3" fill="#ffffff" opacity="0.12"/><circle cx="914" cy="264" r="3.3" fill="#ffffff" opacity="0.16"/><circle cx="1011" cy="317" r="1.3" fill="#ffffff" opacity="0.2"/><rect x="728" y="96" width="264" height="440" rx="42" fill="#070a14" stroke="#f7f4ed" stroke-opacity=".7" stroke-width="10"/><path class="line gold" filter="url(#glow)" d="M860 178v260M770 282h180"/><circle cx="860" cy="484" r="12" fill="#f7f4ed" opacity=".8"/></g>
</svg>